{
    "patcher": {
        "fileversion": 1,
        "appversion": {
            "major": 9,
            "minor": 1,
            "revision": 2,
            "architecture": "x64",
            "modernui": 1
        },
        "classnamespace": "box",
        "rect": [ 34.0, 96.0, 449.0, 852.0 ],
        "boxes": [
            {
                "box": {
                    "id": "obj-61",
                    "maxclass": "number",
                    "numinlets": 1,
                    "numoutlets": 2,
                    "outlettype": [ "", "bang" ],
                    "parameter_enable": 0,
                    "patching_rect": [ 75.0, 25.0, 50.0, 22.0 ]
                }
            },
            {
                "box": {
                    "id": "obj-59",
                    "maxclass": "newobj",
                    "numinlets": 2,
                    "numoutlets": 1,
                    "outlettype": [ "float" ],
                    "patching_rect": [ 225.0, 204.0, 39.0, 22.0 ],
                    "text": "/ 3.14"
                }
            },
            {
                "box": {
                    "id": "obj-58",
                    "maxclass": "newobj",
                    "numinlets": 5,
                    "numoutlets": 4,
                    "outlettype": [ "int", "", "", "int" ],
                    "patching_rect": [ 225.0, 165.0, 72.0, 22.0 ],
                    "text": "counter 200"
                }
            },
            {
                "box": {
                    "id": "obj-57",
                    "maxclass": "newobj",
                    "numinlets": 2,
                    "numoutlets": 1,
                    "outlettype": [ "float" ],
                    "patching_rect": [ 35.0, 928.0, 67.0, 22.0 ],
                    "text": "* 0.017453"
                }
            },
            {
                "box": {
                    "id": "obj-55",
                    "maxclass": "newobj",
                    "numinlets": 2,
                    "numoutlets": 1,
                    "outlettype": [ "float" ],
                    "patching_rect": [ 35.0, 897.0, 80.0, 22.0 ],
                    "text": "* 137.507764"
                }
            },
            {
                "box": {
                    "id": "obj-56",
                    "maxclass": "newobj",
                    "numinlets": 5,
                    "numoutlets": 4,
                    "outlettype": [ "int", "", "", "int" ],
                    "patching_rect": [ 35.0, 858.0, 61.0, 22.0 ],
                    "text": "counter"
                }
            },
            {
                "box": {
                    "id": "obj-54",
                    "maxclass": "newobj",
                    "numinlets": 3,
                    "numoutlets": 1,
                    "outlettype": [ "" ],
                    "patching_rect": [ 35.0, 1094.0, 61.0, 22.0 ],
                    "text": "pack f f 2."
                }
            },
            {
                "box": {
                    "id": "obj-53",
                    "maxclass": "newobj",
                    "numinlets": 1,
                    "numoutlets": 1,
                    "outlettype": [ "" ],
                    "patching_rect": [ 35.0, 1142.0, 97.0, 22.0 ],
                    "text": "prepend position"
                }
            },
            {
                "box": {
                    "id": "obj-52",
                    "maxclass": "newobj",
                    "numinlets": 2,
                    "numoutlets": 1,
                    "outlettype": [ "float" ],
                    "patching_rect": [ 117.0, 1044.0, 29.5, 22.0 ],
                    "text": "* 4."
                }
            },
            {
                "box": {
                    "id": "obj-51",
                    "maxclass": "newobj",
                    "numinlets": 2,
                    "numoutlets": 1,
                    "outlettype": [ "float" ],
                    "patching_rect": [ 35.0, 1044.0, 29.5, 22.0 ],
                    "text": "* 4."
                }
            },
            {
                "box": {
                    "id": "obj-50",
                    "maxclass": "newobj",
                    "numinlets": 1,
                    "numoutlets": 1,
                    "outlettype": [ "float" ],
                    "patching_rect": [ 117.0, 1005.0, 24.0, 22.0 ],
                    "text": "sin"
                }
            },
            {
                "box": {
                    "id": "obj-49",
                    "maxclass": "newobj",
                    "numinlets": 1,
                    "numoutlets": 1,
                    "outlettype": [ "float" ],
                    "patching_rect": [ 35.0, 1005.0, 27.0, 22.0 ],
                    "text": "cos"
                }
            },
            {
                "box": {
                    "id": "obj-46",
                    "maxclass": "newobj",
                    "numinlets": 1,
                    "numoutlets": 2,
                    "outlettype": [ "float", "float" ],
                    "patching_rect": [ 35.0, 963.0, 29.5, 22.0 ],
                    "text": "t f f"
                }
            },
            {
                "box": {
                    "id": "obj-44",
                    "maxclass": "newobj",
                    "numinlets": 1,
                    "numoutlets": 2,
                    "outlettype": [ "jit_gl_texture", "" ],
                    "patching_rect": [ 35.0, 1185.0, 238.0, 22.0 ],
                    "text": "jit.gl.camera w1 @locklook 0 @lookat 0 0 0"
                }
            },
            {
                "box": {
                    "id": "obj-43",
                    "maxclass": "newobj",
                    "numinlets": 2,
                    "numoutlets": 1,
                    "outlettype": [ "float" ],
                    "patching_rect": [ 305.0, 613.0, 80.0, 22.0 ],
                    "text": "* 137.507764"
                }
            },
            {
                "box": {
                    "id": "obj-42",
                    "maxclass": "newobj",
                    "numinlets": 5,
                    "numoutlets": 4,
                    "outlettype": [ "int", "", "", "int" ],
                    "patching_rect": [ 305.0, 574.0, 61.0, 22.0 ],
                    "text": "counter"
                }
            },
            {
                "box": {
                    "id": "obj-41",
                    "maxclass": "newobj",
                    "numinlets": 1,
                    "numoutlets": 1,
                    "outlettype": [ "" ],
                    "patching_rect": [ 305.0, 648.0, 105.0, 22.0 ],
                    "text": "prepend rotatexyz"
                }
            },
            {
                "box": {
                    "format": 6,
                    "id": "obj-40",
                    "maxclass": "flonum",
                    "numinlets": 1,
                    "numoutlets": 2,
                    "outlettype": [ "", "bang" ],
                    "parameter_enable": 0,
                    "patching_rect": [ 225.0, 236.0, 50.0, 22.0 ]
                }
            },
            {
                "box": {
                    "id": "obj-38",
                    "maxclass": "newobj",
                    "numinlets": 1,
                    "numoutlets": 1,
                    "outlettype": [ "" ],
                    "patching_rect": [ 225.0, 272.0, 69.0, 22.0 ],
                    "text": "prepend fib"
                }
            },
            {
                "box": {
                    "id": "obj-27",
                    "maxclass": "newobj",
                    "numinlets": 1,
                    "numoutlets": 2,
                    "outlettype": [ "jit_matrix", "" ],
                    "patching_rect": [ 35.0, 188.0, 149.0, 22.0 ],
                    "text": "jit.matrix 1 float32 256 256"
                }
            },
            {
                "box": {
                    "id": "obj-21",
                    "maxclass": "jit.pwindow",
                    "numinlets": 1,
                    "numoutlets": 2,
                    "outlettype": [ "jit_matrix", "" ],
                    "patching_rect": [ 35.0, 749.0, 137.0, 89.0 ],
                    "presentation": 1,
                    "presentation_rect": [ 22.222221851348877, 1038.88887155056, 696.8254076242447, 439.6825464963913 ],
                    "sync": 1
                }
            },
            {
                "box": {
                    "id": "obj-20",
                    "maxclass": "jit.pwindow",
                    "numinlets": 1,
                    "numoutlets": 2,
                    "outlettype": [ "jit_matrix", "" ],
                    "patching_rect": [ 225.3968288898468, 780.9523930549622, 411.11111748218536, 392.0634981393814 ],
                    "presentation": 1,
                    "presentation_rect": [ 22.222221851348877, 31.481480956077576, 701.047619342804, 1004.7619203329086 ],
                    "sync": 1
                }
            },
            {
                "box": {
                    "id": "obj-18",
                    "maxclass": "toggle",
                    "numinlets": 1,
                    "numoutlets": 1,
                    "outlettype": [ "int" ],
                    "parameter_enable": 0,
                    "patching_rect": [ 144.0, 22.0, 24.0, 24.0 ]
                }
            },
            {
                "box": {
                    "id": "obj-16",
                    "linecount": 3,
                    "maxclass": "newobj",
                    "numinlets": 1,
                    "numoutlets": 3,
                    "outlettype": [ "jit_matrix", "bang", "" ],
                    "patching_rect": [ 144.0, 71.0, 266.0, 49.0 ],
                    "text": "jit.world w1 @floating 1 @fsaa 1 @high_res 1 @dim 1920 1080 @erase_color 0 0 0 1 @output_matrix 1 @visible 0"
                }
            },
            {
                "box": {
                    "id": "obj-15",
                    "linecount": 3,
                    "maxclass": "newobj",
                    "numinlets": 1,
                    "numoutlets": 2,
                    "outlettype": [ "", "" ],
                    "patching_rect": [ 35.0, 681.0, 229.0, 49.0 ],
                    "text": "jit.gl.gridshape w1 @shape sphere @lighting_enable 1 @texture tex1 @dim 200 200"
                }
            },
            {
                "box": {
                    "id": "obj-14",
                    "maxclass": "newobj",
                    "numinlets": 1,
                    "numoutlets": 2,
                    "outlettype": [ "jit_gl_texture", "" ],
                    "patching_rect": [ 35.0, 638.0, 235.0, 22.0 ],
                    "text": "jit.gl.texture w1 @name tex1 @rectangle 0"
                }
            },
            {
                "box": {
                    "id": "obj-13",
                    "maxclass": "newobj",
                    "numinlets": 1,
                    "numoutlets": 2,
                    "outlettype": [ "jit_matrix", "" ],
                    "patching_rect": [ 35.0, 580.0, 149.0, 22.0 ],
                    "text": "jit.matrix 1 float32 256 256"
                }
            },
            {
                "box": {
                    "id": "obj-10",
                    "maxclass": "toggle",
                    "numinlets": 1,
                    "numoutlets": 1,
                    "outlettype": [ "int" ],
                    "parameter_enable": 0,
                    "patching_rect": [ 27.0, 34.0, 24.0, 24.0 ]
                }
            },
            {
                "box": {
                    "id": "obj-8",
                    "maxclass": "newobj",
                    "numinlets": 2,
                    "numoutlets": 1,
                    "outlettype": [ "bang" ],
                    "patching_rect": [ 27.0, 88.0, 69.0, 22.0 ],
                    "text": "qmetro 100"
                }
            },
            {
                "box": {
                    "id": "obj-5",
                    "maxclass": "button",
                    "numinlets": 1,
                    "numoutlets": 1,
                    "outlettype": [ "bang" ],
                    "parameter_enable": 0,
                    "patching_rect": [ 30.0, 133.0, 24.0, 24.0 ]
                }
            },
            {
                "box": {
                    "code": "Param fib(1);\n\nphi = 1.61803398875;\n\nx = cell.x / dim.x - 0.5;\ny = cell.y / dim.y - 0.5;\n\nr = sqrt(x*x + y*y);\ntheta = atan(y, x);\n\nf = fract((theta + r * phi) * fib);\n\nout1 = smoothstep(0.25, 0.75, f);\n",
                    "fontface": 0,
                    "fontname": "<Monospaced>",
                    "fontsize": 12.0,
                    "id": "obj-1",
                    "maxclass": "jit.gen.codebox",
                    "numinlets": 1,
                    "numoutlets": 2,
                    "outlettype": [ "jit_matrix", "" ],
                    "patching_rect": [ 35.0, 337.0, 322.0, 223.0 ]
                }
            }
        ],
        "lines": [
            {
                "patchline": {
                    "destination": [ "obj-13", 0 ],
                    "source": [ "obj-1", 0 ]
                }
            },
            {
                "patchline": {
                    "destination": [ "obj-8", 0 ],
                    "source": [ "obj-10", 0 ]
                }
            },
            {
                "patchline": {
                    "destination": [ "obj-14", 0 ],
                    "order": 1,
                    "source": [ "obj-13", 0 ]
                }
            },
            {
                "patchline": {
                    "destination": [ "obj-21", 0 ],
                    "order": 0,
                    "source": [ "obj-13", 0 ]
                }
            },
            {
                "patchline": {
                    "destination": [ "obj-15", 0 ],
                    "source": [ "obj-14", 0 ]
                }
            },
            {
                "patchline": {
                    "destination": [ "obj-20", 0 ],
                    "source": [ "obj-16", 0 ]
                }
            },
            {
                "patchline": {
                    "destination": [ "obj-16", 0 ],
                    "source": [ "obj-18", 0 ]
                }
            },
            {
                "patchline": {
                    "destination": [ "obj-1", 0 ],
                    "source": [ "obj-27", 0 ]
                }
            },
            {
                "patchline": {
                    "destination": [ "obj-1", 0 ],
                    "source": [ "obj-38", 0 ]
                }
            },
            {
                "patchline": {
                    "destination": [ "obj-38", 0 ],
                    "source": [ "obj-40", 0 ]
                }
            },
            {
                "patchline": {
                    "destination": [ "obj-15", 0 ],
                    "source": [ "obj-41", 0 ]
                }
            },
            {
                "patchline": {
                    "destination": [ "obj-43", 0 ],
                    "source": [ "obj-42", 0 ]
                }
            },
            {
                "patchline": {
                    "destination": [ "obj-41", 0 ],
                    "source": [ "obj-43", 0 ]
                }
            },
            {
                "patchline": {
                    "destination": [ "obj-49", 0 ],
                    "source": [ "obj-46", 0 ]
                }
            },
            {
                "patchline": {
                    "destination": [ "obj-50", 0 ],
                    "source": [ "obj-46", 1 ]
                }
            },
            {
                "patchline": {
                    "destination": [ "obj-51", 0 ],
                    "source": [ "obj-49", 0 ]
                }
            },
            {
                "patchline": {
                    "destination": [ "obj-27", 0 ],
                    "order": 3,
                    "source": [ "obj-5", 0 ]
                }
            },
            {
                "patchline": {
                    "destination": [ "obj-42", 0 ],
                    "order": 0,
                    "source": [ "obj-5", 0 ]
                }
            },
            {
                "patchline": {
                    "destination": [ "obj-56", 0 ],
                    "order": 2,
                    "source": [ "obj-5", 0 ]
                }
            },
            {
                "patchline": {
                    "destination": [ "obj-58", 0 ],
                    "order": 1,
                    "source": [ "obj-5", 0 ]
                }
            },
            {
                "patchline": {
                    "destination": [ "obj-52", 0 ],
                    "source": [ "obj-50", 0 ]
                }
            },
            {
                "patchline": {
                    "destination": [ "obj-54", 0 ],
                    "source": [ "obj-51", 0 ]
                }
            },
            {
                "patchline": {
                    "destination": [ "obj-54", 1 ],
                    "source": [ "obj-52", 0 ]
                }
            },
            {
                "patchline": {
                    "destination": [ "obj-44", 0 ],
                    "source": [ "obj-53", 0 ]
                }
            },
            {
                "patchline": {
                    "destination": [ "obj-53", 0 ],
                    "source": [ "obj-54", 0 ]
                }
            },
            {
                "patchline": {
                    "destination": [ "obj-57", 0 ],
                    "source": [ "obj-55", 0 ]
                }
            },
            {
                "patchline": {
                    "destination": [ "obj-55", 0 ],
                    "source": [ "obj-56", 0 ]
                }
            },
            {
                "patchline": {
                    "destination": [ "obj-46", 0 ],
                    "source": [ "obj-57", 0 ]
                }
            },
            {
                "patchline": {
                    "destination": [ "obj-59", 0 ],
                    "source": [ "obj-58", 0 ]
                }
            },
            {
                "patchline": {
                    "destination": [ "obj-40", 0 ],
                    "source": [ "obj-59", 0 ]
                }
            },
            {
                "patchline": {
                    "destination": [ "obj-8", 1 ],
                    "source": [ "obj-61", 0 ]
                }
            },
            {
                "patchline": {
                    "destination": [ "obj-5", 0 ],
                    "source": [ "obj-8", 0 ]
                }
            }
        ],
        "autosave": 0,
        "oscsendudpport": 9000
    }
}