{
    "patcher": {
        "fileversion": 1,
        "appversion": {
            "major": 9,
            "minor": 1,
            "revision": 2,
            "architecture": "x64",
            "modernui": 1
        },
        "classnamespace": "box",
        "rect": [ 34.0, 95.0, 1444.0, 853.0 ],
        "boxes": [
            {
                "box": {
                    "id": "obj-122",
                    "maxclass": "message",
                    "numinlets": 2,
                    "numoutlets": 1,
                    "outlettype": [ "" ],
                    "patching_rect": [ 644.8051886558533, 120.77921962738037, 37.0, 22.0 ],
                    "text": "close"
                }
            },
            {
                "box": {
                    "id": "obj-120",
                    "maxclass": "newobj",
                    "numinlets": 1,
                    "numoutlets": 1,
                    "outlettype": [ "" ],
                    "patching_rect": [ 604.9295853972435, 642.253529548645, 87.0, 22.0 ],
                    "text": "loadmess 0.99"
                }
            },
            {
                "box": {
                    "id": "obj-119",
                    "maxclass": "newobj",
                    "numinlets": 1,
                    "numoutlets": 1,
                    "outlettype": [ "" ],
                    "patching_rect": [ 614.0845150947571, 485.21127396821976, 87.0, 22.0 ],
                    "text": "loadmess 0.96"
                }
            },
            {
                "box": {
                    "id": "obj-118",
                    "maxclass": "newobj",
                    "numinlets": 1,
                    "numoutlets": 1,
                    "outlettype": [ "" ],
                    "patcher": {
                        "fileversion": 1,
                        "appversion": {
                            "major": 9,
                            "minor": 1,
                            "revision": 2,
                            "architecture": "x64",
                            "modernui": 1
                        },
                        "classnamespace": "box",
                        "rect": [ 0.0, 0.0, 1000.0, 759.2 ],
                        "boxes": [
                            {
                                "box": {
                                    "id": "obj-25",
                                    "maxclass": "newobj",
                                    "numinlets": 2,
                                    "numoutlets": 1,
                                    "outlettype": [ "" ],
                                    "patching_rect": [ 50.0, 100.0, 73.0, 22.0 ],
                                    "text": "speedlim 50"
                                }
                            },
                            {
                                "box": {
                                    "id": "obj-24",
                                    "maxclass": "newobj",
                                    "numinlets": 2,
                                    "numoutlets": 1,
                                    "outlettype": [ "" ],
                                    "patching_rect": [ 50.0, 276.78899068832396, 40.0, 22.0 ],
                                    "text": "pak i i"
                                }
                            },
                            {
                                "box": {
                                    "id": "obj-23",
                                    "maxclass": "newobj",
                                    "numinlets": 1,
                                    "numoutlets": 2,
                                    "outlettype": [ "int", "int" ],
                                    "patching_rect": [ 50.0, 238.22966773509978, 59.0, 22.0 ],
                                    "text": "unpack i i"
                                }
                            },
                            {
                                "box": {
                                    "id": "obj-22",
                                    "maxclass": "newobj",
                                    "numinlets": 2,
                                    "numoutlets": 2,
                                    "outlettype": [ "", "" ],
                                    "patching_rect": [ 50.0, 204.33136184215545, 61.0, 22.0 ],
                                    "text": "zl.group 2"
                                }
                            },
                            {
                                "box": {
                                    "id": "obj-21",
                                    "maxclass": "newobj",
                                    "numinlets": 2,
                                    "numoutlets": 3,
                                    "outlettype": [ "bang", "bang", "int" ],
                                    "patching_rect": [ 50.0, 132.13, 40.0, 22.0 ],
                                    "text": "uzi 2"
                                }
                            },
                            {
                                "box": {
                                    "id": "obj-20",
                                    "maxclass": "newobj",
                                    "numinlets": 2,
                                    "numoutlets": 1,
                                    "outlettype": [ "" ],
                                    "patching_rect": [ 50.0, 170.8567847728729, 73.0, 22.0 ],
                                    "text": "random 300"
                                }
                            },
                            {
                                "box": {
                                    "id": "obj-19",
                                    "maxclass": "newobj",
                                    "numinlets": 1,
                                    "numoutlets": 1,
                                    "outlettype": [ "" ],
                                    "patching_rect": [ 50.0, 315.34831364154815, 75.0, 22.0 ],
                                    "text": "prepend dim"
                                }
                            },
                            {
                                "box": {
                                    "comment": "",
                                    "id": "obj-116",
                                    "index": 1,
                                    "maxclass": "inlet",
                                    "numinlets": 0,
                                    "numoutlets": 1,
                                    "outlettype": [ "bang" ],
                                    "patching_rect": [ 50.000009999999975, 40.00000299999999, 30.0, 30.0 ]
                                }
                            },
                            {
                                "box": {
                                    "comment": "",
                                    "id": "obj-117",
                                    "index": 1,
                                    "maxclass": "outlet",
                                    "numinlets": 1,
                                    "numoutlets": 0,
                                    "patching_rect": [ 50.000009999999975, 397.348315, 30.0, 30.0 ]
                                }
                            }
                        ],
                        "lines": [
                            {
                                "patchline": {
                                    "destination": [ "obj-25", 0 ],
                                    "source": [ "obj-116", 0 ]
                                }
                            },
                            {
                                "patchline": {
                                    "destination": [ "obj-117", 0 ],
                                    "source": [ "obj-19", 0 ]
                                }
                            },
                            {
                                "patchline": {
                                    "destination": [ "obj-22", 0 ],
                                    "source": [ "obj-20", 0 ]
                                }
                            },
                            {
                                "patchline": {
                                    "destination": [ "obj-20", 0 ],
                                    "source": [ "obj-21", 0 ]
                                }
                            },
                            {
                                "patchline": {
                                    "destination": [ "obj-23", 0 ],
                                    "source": [ "obj-22", 0 ]
                                }
                            },
                            {
                                "patchline": {
                                    "destination": [ "obj-24", 1 ],
                                    "source": [ "obj-23", 1 ]
                                }
                            },
                            {
                                "patchline": {
                                    "destination": [ "obj-24", 0 ],
                                    "source": [ "obj-23", 0 ]
                                }
                            },
                            {
                                "patchline": {
                                    "destination": [ "obj-19", 0 ],
                                    "source": [ "obj-24", 0 ]
                                }
                            },
                            {
                                "patchline": {
                                    "destination": [ "obj-21", 0 ],
                                    "source": [ "obj-25", 0 ]
                                }
                            }
                        ]
                    },
                    "patching_rect": [ 539.1271319389343, 292.95775032043457, 72.0, 22.0 ],
                    "text": "p matrix rnd"
                }
            },
            {
                "box": {
                    "id": "obj-115",
                    "maxclass": "newobj",
                    "numinlets": 1,
                    "numoutlets": 1,
                    "outlettype": [ "" ],
                    "patcher": {
                        "fileversion": 1,
                        "appversion": {
                            "major": 9,
                            "minor": 1,
                            "revision": 2,
                            "architecture": "x64",
                            "modernui": 1
                        },
                        "classnamespace": "box",
                        "rect": [ 0.0, 0.0, 1000.0, 759.2 ],
                        "boxes": [
                            {
                                "box": {
                                    "id": "obj-47",
                                    "maxclass": "newobj",
                                    "numinlets": 2,
                                    "numoutlets": 1,
                                    "outlettype": [ "" ],
                                    "patching_rect": [ 138.49150145053864, 253.34831364154815, 73.0, 22.0 ],
                                    "text": "speedlim 30"
                                }
                            },
                            {
                                "box": {
                                    "id": "obj-46",
                                    "maxclass": "newobj",
                                    "numinlets": 2,
                                    "numoutlets": 1,
                                    "outlettype": [ "" ],
                                    "patching_rect": [ 138.49150145053864, 284.34831364154815, 115.0, 22.0 ],
                                    "text": "random @range 1 5"
                                }
                            },
                            {
                                "box": {
                                    "id": "obj-45",
                                    "maxclass": "newobj",
                                    "numinlets": 1,
                                    "numoutlets": 1,
                                    "outlettype": [ "" ],
                                    "patching_rect": [ 138.49150145053864, 315.34831364154815, 115.0, 22.0 ],
                                    "text": "prepend planecount"
                                }
                            },
                            {
                                "box": {
                                    "id": "obj-33",
                                    "maxclass": "newobj",
                                    "numinlets": 2,
                                    "numoutlets": 1,
                                    "outlettype": [ "" ],
                                    "patching_rect": [ 50.0, 100.0, 80.0, 22.0 ],
                                    "text": "speedlim 120"
                                }
                            },
                            {
                                "box": {
                                    "id": "obj-34",
                                    "maxclass": "newobj",
                                    "numinlets": 2,
                                    "numoutlets": 1,
                                    "outlettype": [ "" ],
                                    "patching_rect": [ 50.0, 276.78899068832396, 40.0, 22.0 ],
                                    "text": "pak i i"
                                }
                            },
                            {
                                "box": {
                                    "id": "obj-35",
                                    "maxclass": "newobj",
                                    "numinlets": 1,
                                    "numoutlets": 2,
                                    "outlettype": [ "int", "int" ],
                                    "patching_rect": [ 50.0, 238.22966773509978, 59.0, 22.0 ],
                                    "text": "unpack i i"
                                }
                            },
                            {
                                "box": {
                                    "id": "obj-36",
                                    "maxclass": "newobj",
                                    "numinlets": 2,
                                    "numoutlets": 2,
                                    "outlettype": [ "", "" ],
                                    "patching_rect": [ 50.0, 204.33136184215545, 61.0, 22.0 ],
                                    "text": "zl.group 2"
                                }
                            },
                            {
                                "box": {
                                    "id": "obj-37",
                                    "maxclass": "newobj",
                                    "numinlets": 2,
                                    "numoutlets": 3,
                                    "outlettype": [ "bang", "bang", "int" ],
                                    "patching_rect": [ 50.0, 132.29746181964873, 40.0, 22.0 ],
                                    "text": "uzi 2"
                                }
                            },
                            {
                                "box": {
                                    "id": "obj-38",
                                    "maxclass": "newobj",
                                    "numinlets": 2,
                                    "numoutlets": 1,
                                    "outlettype": [ "" ],
                                    "patching_rect": [ 50.0, 170.8567847728729, 73.0, 22.0 ],
                                    "text": "random 100"
                                }
                            },
                            {
                                "box": {
                                    "id": "obj-39",
                                    "maxclass": "newobj",
                                    "numinlets": 1,
                                    "numoutlets": 1,
                                    "outlettype": [ "" ],
                                    "patching_rect": [ 50.0, 315.34831364154815, 75.0, 22.0 ],
                                    "text": "prepend dim"
                                }
                            },
                            {
                                "box": {
                                    "comment": "",
                                    "id": "obj-113",
                                    "index": 1,
                                    "maxclass": "inlet",
                                    "numinlets": 0,
                                    "numoutlets": 1,
                                    "outlettype": [ "bang" ],
                                    "patching_rect": [ 88.24577345053854, 40.00000299999999, 30.0, 30.0 ]
                                }
                            },
                            {
                                "box": {
                                    "comment": "",
                                    "id": "obj-114",
                                    "index": 1,
                                    "maxclass": "outlet",
                                    "numinlets": 1,
                                    "numoutlets": 0,
                                    "patching_rect": [ 88.24577345053854, 397.348315, 30.0, 30.0 ]
                                }
                            }
                        ],
                        "lines": [
                            {
                                "patchline": {
                                    "destination": [ "obj-33", 0 ],
                                    "order": 1,
                                    "source": [ "obj-113", 0 ]
                                }
                            },
                            {
                                "patchline": {
                                    "destination": [ "obj-47", 0 ],
                                    "order": 0,
                                    "source": [ "obj-113", 0 ]
                                }
                            },
                            {
                                "patchline": {
                                    "destination": [ "obj-37", 0 ],
                                    "source": [ "obj-33", 0 ]
                                }
                            },
                            {
                                "patchline": {
                                    "destination": [ "obj-39", 0 ],
                                    "source": [ "obj-34", 0 ]
                                }
                            },
                            {
                                "patchline": {
                                    "destination": [ "obj-34", 1 ],
                                    "source": [ "obj-35", 1 ]
                                }
                            },
                            {
                                "patchline": {
                                    "destination": [ "obj-34", 0 ],
                                    "source": [ "obj-35", 0 ]
                                }
                            },
                            {
                                "patchline": {
                                    "destination": [ "obj-35", 0 ],
                                    "source": [ "obj-36", 0 ]
                                }
                            },
                            {
                                "patchline": {
                                    "destination": [ "obj-38", 0 ],
                                    "source": [ "obj-37", 0 ]
                                }
                            },
                            {
                                "patchline": {
                                    "destination": [ "obj-36", 0 ],
                                    "source": [ "obj-38", 0 ]
                                }
                            },
                            {
                                "patchline": {
                                    "destination": [ "obj-114", 0 ],
                                    "source": [ "obj-39", 0 ]
                                }
                            },
                            {
                                "patchline": {
                                    "destination": [ "obj-114", 0 ],
                                    "source": [ "obj-45", 0 ]
                                }
                            },
                            {
                                "patchline": {
                                    "destination": [ "obj-45", 0 ],
                                    "source": [ "obj-46", 0 ]
                                }
                            },
                            {
                                "patchline": {
                                    "destination": [ "obj-46", 0 ],
                                    "source": [ "obj-47", 0 ]
                                }
                            }
                        ]
                    },
                    "patching_rect": [ 514.0, 375.0, 68.0, 22.0 ],
                    "text": "p noise rnd"
                }
            },
            {
                "box": {
                    "id": "obj-112",
                    "maxclass": "newobj",
                    "numinlets": 1,
                    "numoutlets": 1,
                    "outlettype": [ "" ],
                    "patching_rect": [ 505.28, 63.0, 83.0, 22.0 ],
                    "text": "loadmess 200"
                }
            },
            {
                "box": {
                    "format": 6,
                    "id": "obj-109",
                    "maxclass": "flonum",
                    "numinlets": 1,
                    "numoutlets": 2,
                    "outlettype": [ "", "bang" ],
                    "parameter_enable": 0,
                    "patching_rect": [ 604.9295853972435, 674.6478961706161, 50.0, 22.0 ]
                }
            },
            {
                "box": {
                    "id": "obj-110",
                    "maxclass": "newobj",
                    "numinlets": 1,
                    "numoutlets": 1,
                    "outlettype": [ "" ],
                    "patching_rect": [ 604.9295853972435, 708.4507135152817, 59.0, 22.0 ],
                    "text": "prepend f"
                }
            },
            {
                "box": {
                    "id": "obj-108",
                    "maxclass": "newobj",
                    "numinlets": 1,
                    "numoutlets": 2,
                    "outlettype": [ "jit_gl_texture", "" ],
                    "patcher": {
                        "fileversion": 1,
                        "appversion": {
                            "major": 9,
                            "minor": 1,
                            "revision": 2,
                            "architecture": "x64",
                            "modernui": 1
                        },
                        "classnamespace": "jit.gen",
                        "rect": [ 59.0, 114.0, 600.0, 450.0 ],
                        "boxes": [
                            {
                                "box": {
                                    "id": "obj-2",
                                    "maxclass": "newobj",
                                    "numinlets": 0,
                                    "numoutlets": 1,
                                    "outlettype": [ "" ],
                                    "patching_rect": [ 259.72, 73.39, 49.0, 22.0 ],
                                    "text": "param f"
                                }
                            },
                            {
                                "box": {
                                    "id": "obj-1",
                                    "maxclass": "newobj",
                                    "numinlets": 0,
                                    "numoutlets": 1,
                                    "outlettype": [ "" ],
                                    "patching_rect": [ 50.0, 14.0, 28.0, 22.0 ],
                                    "text": "in 1"
                                }
                            },
                            {
                                "box": {
                                    "id": "obj-3",
                                    "maxclass": "newobj",
                                    "numinlets": 2,
                                    "numoutlets": 1,
                                    "outlettype": [ "" ],
                                    "patching_rect": [ 176.0, 149.0, 29.5, 22.0 ],
                                    "text": "*"
                                }
                            },
                            {
                                "box": {
                                    "id": "obj-4",
                                    "maxclass": "newobj",
                                    "numinlets": 1,
                                    "numoutlets": 0,
                                    "patching_rect": [ 176.0, 418.0, 35.0, 22.0 ],
                                    "text": "out 1"
                                }
                            }
                        ],
                        "lines": [
                            {
                                "patchline": {
                                    "destination": [ "obj-3", 0 ],
                                    "source": [ "obj-1", 0 ]
                                }
                            },
                            {
                                "patchline": {
                                    "destination": [ "obj-3", 1 ],
                                    "source": [ "obj-2", 0 ]
                                }
                            },
                            {
                                "patchline": {
                                    "destination": [ "obj-4", 0 ],
                                    "source": [ "obj-3", 0 ]
                                }
                            }
                        ]
                    },
                    "patching_rect": [ 552.5, 753.5211366415024, 49.0, 22.0 ],
                    "text": "jit.gl.pix"
                }
            },
            {
                "box": {
                    "id": "obj-107",
                    "maxclass": "newobj",
                    "numinlets": 2,
                    "numoutlets": 2,
                    "outlettype": [ "jit_gl_texture", "" ],
                    "patcher": {
                        "fileversion": 1,
                        "appversion": {
                            "major": 9,
                            "minor": 1,
                            "revision": 2,
                            "architecture": "x64",
                            "modernui": 1
                        },
                        "classnamespace": "jit.gen",
                        "rect": [ 0.0, 0.0, 600.0, 450.0 ],
                        "boxes": [
                            {
                                "box": {
                                    "id": "obj-1",
                                    "maxclass": "newobj",
                                    "numinlets": 0,
                                    "numoutlets": 1,
                                    "outlettype": [ "" ],
                                    "patching_rect": [ 50.0, 14.0, 28.0, 22.0 ],
                                    "text": "in 1"
                                }
                            },
                            {
                                "box": {
                                    "id": "obj-2",
                                    "maxclass": "newobj",
                                    "numinlets": 0,
                                    "numoutlets": 1,
                                    "outlettype": [ "" ],
                                    "patching_rect": [ 305.0, 14.0, 28.0, 22.0 ],
                                    "text": "in 2"
                                }
                            },
                            {
                                "box": {
                                    "id": "obj-3",
                                    "maxclass": "newobj",
                                    "numinlets": 2,
                                    "numoutlets": 1,
                                    "outlettype": [ "" ],
                                    "patching_rect": [ 176.0, 149.0, 29.5, 22.0 ],
                                    "text": "+"
                                }
                            },
                            {
                                "box": {
                                    "id": "obj-4",
                                    "maxclass": "newobj",
                                    "numinlets": 1,
                                    "numoutlets": 0,
                                    "patching_rect": [ 176.0, 418.0, 35.0, 22.0 ],
                                    "text": "out 1"
                                }
                            }
                        ],
                        "lines": [
                            {
                                "patchline": {
                                    "destination": [ "obj-3", 0 ],
                                    "source": [ "obj-1", 0 ]
                                }
                            },
                            {
                                "patchline": {
                                    "destination": [ "obj-3", 1 ],
                                    "source": [ "obj-2", 0 ]
                                }
                            },
                            {
                                "patchline": {
                                    "destination": [ "obj-4", 0 ],
                                    "source": [ "obj-3", 0 ]
                                }
                            }
                        ]
                    },
                    "patching_rect": [ 480.98592180013657, 773.9436721205711, 49.0, 22.0 ],
                    "text": "jit.gl.pix"
                }
            },
            {
                "box": {
                    "id": "obj-104",
                    "maxclass": "newobj",
                    "numinlets": 1,
                    "numoutlets": 3,
                    "outlettype": [ "jit_matrix", "bang", "" ],
                    "patching_rect": [ 243.0, 63.0, 182.0, 22.0 ],
                    "text": "jit.world w @enable 1 @visible 0"
                }
            },
            {
                "box": {
                    "id": "obj-103",
                    "maxclass": "jit.pwindow",
                    "numinlets": 1,
                    "numoutlets": 2,
                    "outlettype": [ "jit_matrix", "" ],
                    "patching_rect": [ 480.9523763656616, 871.428563117981, 255.8139443397522, 254.65115368366241 ],
                    "sync": 1
                }
            },
            {
                "box": {
                    "embedstate": [
                        [ "adapt", 1 ],
                        [ "bypass", 0 ],
                        [ "enable", 1 ]
                    ],
                    "filename": "jit.fx.ge.randlines.js",
                    "id": "obj-102",
                    "maxclass": "newobj",
                    "numinlets": 1,
                    "numoutlets": 1,
                    "outlettype": [ "jit_gl_texture" ],
                    "patching_rect": [ 480.98592180013657, 814.0845177173615, 242.0, 22.0 ],
                    "saved_object_attributes": {
                        "parameter_enable": 0
                    },
                    "text": "jit.fx.ge.randlines @amt 0.21 @radius 15.39",
                    "textfile": {
                        "filename": "jit.fx.ge.randlines.js",
                        "flags": 0,
                        "embed": 0,
                        "autowatch": 1
                    }
                }
            },
            {
                "box": {
                    "embedstate": [
                        [ "adapt", 1 ],
                        [ "bypass", 0 ],
                        [ "enable", 1 ]
                    ],
                    "filename": "jit.fx.cf.gaussian.js",
                    "id": "obj-101",
                    "maxclass": "newobj",
                    "numinlets": 1,
                    "numoutlets": 1,
                    "outlettype": [ "jit_gl_texture" ],
                    "patching_rect": [ 481.0, 704.0, 109.0, 22.0 ],
                    "saved_object_attributes": {
                        "parameter_enable": 0
                    },
                    "text": "jit.fx.blur @amt 0.4",
                    "textfile": {
                        "filename": "jit.fx.cf.gaussian.js",
                        "flags": 0,
                        "embed": 0,
                        "autowatch": 1
                    }
                }
            },
            {
                "box": {
                    "id": "obj-100",
                    "maxclass": "newobj",
                    "numinlets": 1,
                    "numoutlets": 2,
                    "outlettype": [ "jit_gl_texture", "" ],
                    "patching_rect": [ 481.0, 662.4507036805153, 70.0, 22.0 ],
                    "text": "jit.gl.texture"
                }
            },
            {
                "box": {
                    "format": 6,
                    "id": "obj-99",
                    "maxclass": "flonum",
                    "numinlets": 1,
                    "numoutlets": 2,
                    "outlettype": [ "", "bang" ],
                    "parameter_enable": 0,
                    "patching_rect": [ 614.0, 517.6056405901909, 50.0, 22.0 ]
                }
            },
            {
                "box": {
                    "id": "obj-97",
                    "maxclass": "newobj",
                    "numinlets": 1,
                    "numoutlets": 1,
                    "outlettype": [ "" ],
                    "patching_rect": [ 614.0, 551.4084579348564, 59.0, 22.0 ],
                    "text": "prepend f"
                }
            },
            {
                "box": {
                    "id": "obj-96",
                    "maxclass": "newobj",
                    "numinlets": 2,
                    "numoutlets": 2,
                    "outlettype": [ "jit_matrix", "" ],
                    "patcher": {
                        "fileversion": 1,
                        "appversion": {
                            "major": 9,
                            "minor": 1,
                            "revision": 2,
                            "architecture": "x64",
                            "modernui": 1
                        },
                        "classnamespace": "jit.gen",
                        "rect": [ 59.0, 114.0, 600.0, 450.0 ],
                        "boxes": [
                            {
                                "box": {
                                    "id": "obj-1",
                                    "maxclass": "newobj",
                                    "numinlets": 0,
                                    "numoutlets": 1,
                                    "outlettype": [ "" ],
                                    "patching_rect": [ 50.0, 14.0, 28.0, 22.0 ],
                                    "text": "in 1"
                                }
                            },
                            {
                                "box": {
                                    "id": "obj-2",
                                    "maxclass": "newobj",
                                    "numinlets": 0,
                                    "numoutlets": 1,
                                    "outlettype": [ "" ],
                                    "patching_rect": [ 305.0, 14.0, 28.0, 22.0 ],
                                    "text": "in 2"
                                }
                            },
                            {
                                "box": {
                                    "id": "obj-3",
                                    "maxclass": "newobj",
                                    "numinlets": 2,
                                    "numoutlets": 1,
                                    "outlettype": [ "" ],
                                    "patching_rect": [ 176.0, 149.0, 29.5, 22.0 ],
                                    "text": "+"
                                }
                            },
                            {
                                "box": {
                                    "id": "obj-4",
                                    "maxclass": "newobj",
                                    "numinlets": 1,
                                    "numoutlets": 0,
                                    "patching_rect": [ 176.0, 418.0, 35.0, 22.0 ],
                                    "text": "out 1"
                                }
                            }
                        ],
                        "lines": [
                            {
                                "patchline": {
                                    "destination": [ "obj-3", 0 ],
                                    "source": [ "obj-1", 0 ]
                                }
                            },
                            {
                                "patchline": {
                                    "destination": [ "obj-3", 1 ],
                                    "source": [ "obj-2", 0 ]
                                }
                            },
                            {
                                "patchline": {
                                    "destination": [ "obj-4", 0 ],
                                    "source": [ "obj-3", 0 ]
                                }
                            }
                        ]
                    },
                    "patching_rect": [ 481.0, 612.6760643720627, 41.0, 22.0 ],
                    "text": "jit.gen"
                }
            },
            {
                "box": {
                    "id": "obj-95",
                    "maxclass": "newobj",
                    "numinlets": 1,
                    "numoutlets": 2,
                    "outlettype": [ "jit_matrix", "" ],
                    "patcher": {
                        "fileversion": 1,
                        "appversion": {
                            "major": 9,
                            "minor": 1,
                            "revision": 2,
                            "architecture": "x64",
                            "modernui": 1
                        },
                        "classnamespace": "jit.gen",
                        "rect": [ 59.0, 114.0, 600.0, 450.0 ],
                        "boxes": [
                            {
                                "box": {
                                    "id": "obj-5",
                                    "maxclass": "newobj",
                                    "numinlets": 0,
                                    "numoutlets": 1,
                                    "outlettype": [ "" ],
                                    "patching_rect": [ 275.15, 66.24, 49.0, 22.0 ],
                                    "text": "param f"
                                }
                            },
                            {
                                "box": {
                                    "id": "obj-1",
                                    "maxclass": "newobj",
                                    "numinlets": 0,
                                    "numoutlets": 1,
                                    "outlettype": [ "" ],
                                    "patching_rect": [ 50.0, 14.0, 28.0, 22.0 ],
                                    "text": "in 1"
                                }
                            },
                            {
                                "box": {
                                    "id": "obj-3",
                                    "maxclass": "newobj",
                                    "numinlets": 1,
                                    "numoutlets": 1,
                                    "outlettype": [ "" ],
                                    "patching_rect": [ 176.0, 149.0, 20.0, 22.0 ],
                                    "text": "* f"
                                }
                            },
                            {
                                "box": {
                                    "id": "obj-4",
                                    "maxclass": "newobj",
                                    "numinlets": 1,
                                    "numoutlets": 0,
                                    "patching_rect": [ 176.0, 418.0, 35.0, 22.0 ],
                                    "text": "out 1"
                                }
                            }
                        ],
                        "lines": [
                            {
                                "patchline": {
                                    "destination": [ "obj-3", 0 ],
                                    "source": [ "obj-1", 0 ]
                                }
                            },
                            {
                                "patchline": {
                                    "destination": [ "obj-4", 0 ],
                                    "source": [ "obj-3", 0 ]
                                }
                            }
                        ]
                    },
                    "patching_rect": [ 556.5, 586.6197260022163, 41.0, 22.0 ],
                    "text": "jit.gen"
                }
            },
            {
                "box": {
                    "id": "obj-94",
                    "maxclass": "newobj",
                    "numinlets": 1,
                    "numoutlets": 1,
                    "outlettype": [ "" ],
                    "patcher": {
                        "fileversion": 1,
                        "appversion": {
                            "major": 9,
                            "minor": 1,
                            "revision": 2,
                            "architecture": "x64",
                            "modernui": 1
                        },
                        "classnamespace": "box",
                        "rect": [ 0.0, 0.0, 1000.0, 759.2 ],
                        "boxes": [
                            {
                                "box": {
                                    "id": "obj-89",
                                    "maxclass": "newobj",
                                    "numinlets": 2,
                                    "numoutlets": 1,
                                    "outlettype": [ "" ],
                                    "patching_rect": [ 748.0, 251.0, 142.0, 22.0 ],
                                    "text": "random @range 0.01 0.3"
                                }
                            },
                            {
                                "box": {
                                    "id": "obj-88",
                                    "maxclass": "newobj",
                                    "numinlets": 2,
                                    "numoutlets": 1,
                                    "outlettype": [ "" ],
                                    "patching_rect": [ 748.0, 215.0, 80.0, 22.0 ],
                                    "text": "speedlim 300"
                                }
                            },
                            {
                                "box": {
                                    "id": "obj-86",
                                    "maxclass": "newobj",
                                    "numinlets": 2,
                                    "numoutlets": 1,
                                    "outlettype": [ "" ],
                                    "patching_rect": [ 912.0, 223.0, 80.0, 22.0 ],
                                    "text": "speedlim 100"
                                }
                            },
                            {
                                "box": {
                                    "id": "obj-87",
                                    "maxclass": "newobj",
                                    "numinlets": 2,
                                    "numoutlets": 1,
                                    "outlettype": [ "" ],
                                    "patching_rect": [ 912.0, 252.0, 59.0, 22.0 ],
                                    "text": "random 5"
                                }
                            },
                            {
                                "box": {
                                    "id": "obj-74",
                                    "maxclass": "newobj",
                                    "numinlets": 2,
                                    "numoutlets": 1,
                                    "outlettype": [ "" ],
                                    "patching_rect": [ 527.0, 101.0, 80.0, 22.0 ],
                                    "text": "speedlim 100"
                                }
                            },
                            {
                                "box": {
                                    "id": "obj-76",
                                    "maxclass": "newobj",
                                    "numinlets": 1,
                                    "numoutlets": 2,
                                    "outlettype": [ "int", "int" ],
                                    "patching_rect": [ 527.0, 246.0, 59.0, 22.0 ],
                                    "text": "unpack i i"
                                }
                            },
                            {
                                "box": {
                                    "id": "obj-77",
                                    "maxclass": "newobj",
                                    "numinlets": 2,
                                    "numoutlets": 2,
                                    "outlettype": [ "", "" ],
                                    "patching_rect": [ 527.0, 212.0, 61.0, 22.0 ],
                                    "text": "zl.group 2"
                                }
                            },
                            {
                                "box": {
                                    "id": "obj-78",
                                    "maxclass": "newobj",
                                    "numinlets": 2,
                                    "numoutlets": 3,
                                    "outlettype": [ "bang", "bang", "int" ],
                                    "patching_rect": [ 527.0, 140.0, 40.0, 22.0 ],
                                    "text": "uzi 2"
                                }
                            },
                            {
                                "box": {
                                    "id": "obj-79",
                                    "maxclass": "newobj",
                                    "numinlets": 2,
                                    "numoutlets": 1,
                                    "outlettype": [ "" ],
                                    "patching_rect": [ 527.0, 179.0, 119.0, 22.0 ],
                                    "text": "random @range -1 2"
                                }
                            },
                            {
                                "box": {
                                    "id": "obj-68",
                                    "maxclass": "newobj",
                                    "numinlets": 2,
                                    "numoutlets": 1,
                                    "outlettype": [ "" ],
                                    "patching_rect": [ 275.5, 100.0, 73.0, 22.0 ],
                                    "text": "speedlim 44"
                                }
                            },
                            {
                                "box": {
                                    "id": "obj-70",
                                    "maxclass": "newobj",
                                    "numinlets": 1,
                                    "numoutlets": 2,
                                    "outlettype": [ "int", "int" ],
                                    "patching_rect": [ 275.5, 245.0, 59.0, 22.0 ],
                                    "text": "unpack i i"
                                }
                            },
                            {
                                "box": {
                                    "id": "obj-71",
                                    "maxclass": "newobj",
                                    "numinlets": 2,
                                    "numoutlets": 2,
                                    "outlettype": [ "", "" ],
                                    "patching_rect": [ 275.5, 211.0, 61.0, 22.0 ],
                                    "text": "zl.group 2"
                                }
                            },
                            {
                                "box": {
                                    "id": "obj-72",
                                    "maxclass": "newobj",
                                    "numinlets": 2,
                                    "numoutlets": 3,
                                    "outlettype": [ "bang", "bang", "int" ],
                                    "patching_rect": [ 275.5, 139.0, 40.0, 22.0 ],
                                    "text": "uzi 2"
                                }
                            },
                            {
                                "box": {
                                    "id": "obj-73",
                                    "maxclass": "newobj",
                                    "numinlets": 2,
                                    "numoutlets": 1,
                                    "outlettype": [ "" ],
                                    "patching_rect": [ 275.5, 178.0, 149.0, 22.0 ],
                                    "text": "random @range 0.001 0.9"
                                }
                            },
                            {
                                "box": {
                                    "id": "obj-62",
                                    "maxclass": "newobj",
                                    "numinlets": 2,
                                    "numoutlets": 1,
                                    "outlettype": [ "" ],
                                    "patching_rect": [ 91.0, 100.0, 80.0, 22.0 ],
                                    "text": "speedlim 100"
                                }
                            },
                            {
                                "box": {
                                    "id": "obj-64",
                                    "maxclass": "newobj",
                                    "numinlets": 1,
                                    "numoutlets": 2,
                                    "outlettype": [ "int", "int" ],
                                    "patching_rect": [ 91.0, 245.0, 59.0, 22.0 ],
                                    "text": "unpack i i"
                                }
                            },
                            {
                                "box": {
                                    "id": "obj-65",
                                    "maxclass": "newobj",
                                    "numinlets": 2,
                                    "numoutlets": 2,
                                    "outlettype": [ "", "" ],
                                    "patching_rect": [ 91.0, 211.0, 61.0, 22.0 ],
                                    "text": "zl.group 2"
                                }
                            },
                            {
                                "box": {
                                    "id": "obj-66",
                                    "maxclass": "newobj",
                                    "numinlets": 2,
                                    "numoutlets": 3,
                                    "outlettype": [ "bang", "bang", "int" ],
                                    "patching_rect": [ 91.0, 139.0, 40.0, 22.0 ],
                                    "text": "uzi 2"
                                }
                            },
                            {
                                "box": {
                                    "id": "obj-67",
                                    "maxclass": "newobj",
                                    "numinlets": 2,
                                    "numoutlets": 1,
                                    "outlettype": [ "" ],
                                    "patching_rect": [ 91.0, 178.0, 149.0, 22.0 ],
                                    "text": "random @range 0.01 0.09"
                                }
                            },
                            {
                                "box": {
                                    "id": "obj-61",
                                    "maxclass": "newobj",
                                    "numinlets": 1,
                                    "numoutlets": 1,
                                    "outlettype": [ "" ],
                                    "patching_rect": [ 748.0, 287.0, 83.0, 22.0 ],
                                    "text": "prepend theta"
                                }
                            },
                            {
                                "box": {
                                    "id": "obj-60",
                                    "maxclass": "newobj",
                                    "numinlets": 1,
                                    "numoutlets": 1,
                                    "outlettype": [ "" ],
                                    "patching_rect": [ 912.0, 287.0, 119.0, 22.0 ],
                                    "text": "prepend boundmode"
                                }
                            },
                            {
                                "box": {
                                    "id": "obj-58",
                                    "maxclass": "newobj",
                                    "numinlets": 1,
                                    "numoutlets": 1,
                                    "outlettype": [ "" ],
                                    "patching_rect": [ 633.0, 287.0, 98.0, 22.0 ],
                                    "text": "prepend zoom_y"
                                }
                            },
                            {
                                "box": {
                                    "id": "obj-59",
                                    "maxclass": "newobj",
                                    "numinlets": 1,
                                    "numoutlets": 1,
                                    "outlettype": [ "" ],
                                    "patching_rect": [ 526.0, 287.0, 98.0, 22.0 ],
                                    "text": "prepend zoom_x"
                                }
                            },
                            {
                                "box": {
                                    "id": "obj-56",
                                    "maxclass": "newobj",
                                    "numinlets": 1,
                                    "numoutlets": 1,
                                    "outlettype": [ "" ],
                                    "patching_rect": [ 392.5, 287.0, 105.0, 22.0 ],
                                    "text": "prepend anchor_y"
                                }
                            },
                            {
                                "box": {
                                    "id": "obj-57",
                                    "maxclass": "newobj",
                                    "numinlets": 1,
                                    "numoutlets": 1,
                                    "outlettype": [ "" ],
                                    "patching_rect": [ 275.5, 287.0, 105.0, 22.0 ],
                                    "text": "prepend anchor_x"
                                }
                            },
                            {
                                "box": {
                                    "id": "obj-55",
                                    "maxclass": "newobj",
                                    "numinlets": 1,
                                    "numoutlets": 1,
                                    "outlettype": [ "" ],
                                    "patching_rect": [ 157.0, 287.0, 98.0, 22.0 ],
                                    "text": "prepend offset_y"
                                }
                            },
                            {
                                "box": {
                                    "id": "obj-54",
                                    "maxclass": "newobj",
                                    "numinlets": 1,
                                    "numoutlets": 1,
                                    "outlettype": [ "" ],
                                    "patching_rect": [ 50.0, 287.0, 98.0, 22.0 ],
                                    "text": "prepend offset_x"
                                }
                            },
                            {
                                "box": {
                                    "comment": "",
                                    "id": "obj-92",
                                    "index": 1,
                                    "maxclass": "inlet",
                                    "numinlets": 0,
                                    "numoutlets": 1,
                                    "outlettype": [ "bang" ],
                                    "patching_rect": [ 504.69995100000006, 40.0, 30.0, 30.0 ]
                                }
                            },
                            {
                                "box": {
                                    "comment": "",
                                    "id": "obj-93",
                                    "index": 1,
                                    "maxclass": "outlet",
                                    "numinlets": 1,
                                    "numoutlets": 0,
                                    "patching_rect": [ 455.75, 369.0, 30.0, 30.0 ]
                                }
                            }
                        ],
                        "lines": [
                            {
                                "patchline": {
                                    "destination": [ "obj-93", 0 ],
                                    "source": [ "obj-54", 0 ]
                                }
                            },
                            {
                                "patchline": {
                                    "destination": [ "obj-93", 0 ],
                                    "source": [ "obj-55", 0 ]
                                }
                            },
                            {
                                "patchline": {
                                    "destination": [ "obj-93", 0 ],
                                    "source": [ "obj-56", 0 ]
                                }
                            },
                            {
                                "patchline": {
                                    "destination": [ "obj-93", 0 ],
                                    "source": [ "obj-57", 0 ]
                                }
                            },
                            {
                                "patchline": {
                                    "destination": [ "obj-93", 0 ],
                                    "source": [ "obj-58", 0 ]
                                }
                            },
                            {
                                "patchline": {
                                    "destination": [ "obj-93", 0 ],
                                    "source": [ "obj-59", 0 ]
                                }
                            },
                            {
                                "patchline": {
                                    "destination": [ "obj-93", 0 ],
                                    "source": [ "obj-60", 0 ]
                                }
                            },
                            {
                                "patchline": {
                                    "destination": [ "obj-93", 0 ],
                                    "source": [ "obj-61", 0 ]
                                }
                            },
                            {
                                "patchline": {
                                    "destination": [ "obj-66", 0 ],
                                    "source": [ "obj-62", 0 ]
                                }
                            },
                            {
                                "patchline": {
                                    "destination": [ "obj-54", 0 ],
                                    "source": [ "obj-64", 0 ]
                                }
                            },
                            {
                                "patchline": {
                                    "destination": [ "obj-55", 0 ],
                                    "source": [ "obj-64", 1 ]
                                }
                            },
                            {
                                "patchline": {
                                    "destination": [ "obj-64", 0 ],
                                    "source": [ "obj-65", 0 ]
                                }
                            },
                            {
                                "patchline": {
                                    "destination": [ "obj-67", 0 ],
                                    "source": [ "obj-66", 0 ]
                                }
                            },
                            {
                                "patchline": {
                                    "destination": [ "obj-65", 0 ],
                                    "source": [ "obj-67", 0 ]
                                }
                            },
                            {
                                "patchline": {
                                    "destination": [ "obj-72", 0 ],
                                    "source": [ "obj-68", 0 ]
                                }
                            },
                            {
                                "patchline": {
                                    "destination": [ "obj-56", 0 ],
                                    "source": [ "obj-70", 1 ]
                                }
                            },
                            {
                                "patchline": {
                                    "destination": [ "obj-57", 0 ],
                                    "source": [ "obj-70", 0 ]
                                }
                            },
                            {
                                "patchline": {
                                    "destination": [ "obj-70", 0 ],
                                    "source": [ "obj-71", 0 ]
                                }
                            },
                            {
                                "patchline": {
                                    "destination": [ "obj-73", 0 ],
                                    "source": [ "obj-72", 0 ]
                                }
                            },
                            {
                                "patchline": {
                                    "destination": [ "obj-71", 0 ],
                                    "source": [ "obj-73", 0 ]
                                }
                            },
                            {
                                "patchline": {
                                    "destination": [ "obj-78", 0 ],
                                    "source": [ "obj-74", 0 ]
                                }
                            },
                            {
                                "patchline": {
                                    "destination": [ "obj-58", 0 ],
                                    "source": [ "obj-76", 1 ]
                                }
                            },
                            {
                                "patchline": {
                                    "destination": [ "obj-59", 0 ],
                                    "source": [ "obj-76", 0 ]
                                }
                            },
                            {
                                "patchline": {
                                    "destination": [ "obj-76", 0 ],
                                    "source": [ "obj-77", 0 ]
                                }
                            },
                            {
                                "patchline": {
                                    "destination": [ "obj-79", 0 ],
                                    "source": [ "obj-78", 0 ]
                                }
                            },
                            {
                                "patchline": {
                                    "destination": [ "obj-77", 0 ],
                                    "source": [ "obj-79", 0 ]
                                }
                            },
                            {
                                "patchline": {
                                    "destination": [ "obj-87", 0 ],
                                    "source": [ "obj-86", 0 ]
                                }
                            },
                            {
                                "patchline": {
                                    "destination": [ "obj-60", 0 ],
                                    "source": [ "obj-87", 0 ]
                                }
                            },
                            {
                                "patchline": {
                                    "destination": [ "obj-89", 0 ],
                                    "source": [ "obj-88", 0 ]
                                }
                            },
                            {
                                "patchline": {
                                    "destination": [ "obj-61", 0 ],
                                    "source": [ "obj-89", 0 ]
                                }
                            },
                            {
                                "patchline": {
                                    "destination": [ "obj-62", 0 ],
                                    "order": 4,
                                    "source": [ "obj-92", 0 ]
                                }
                            },
                            {
                                "patchline": {
                                    "destination": [ "obj-68", 0 ],
                                    "order": 3,
                                    "source": [ "obj-92", 0 ]
                                }
                            },
                            {
                                "patchline": {
                                    "destination": [ "obj-74", 0 ],
                                    "order": 2,
                                    "source": [ "obj-92", 0 ]
                                }
                            },
                            {
                                "patchline": {
                                    "destination": [ "obj-86", 0 ],
                                    "order": 0,
                                    "source": [ "obj-92", 0 ]
                                }
                            },
                            {
                                "patchline": {
                                    "destination": [ "obj-88", 0 ],
                                    "order": 1,
                                    "source": [ "obj-92", 0 ]
                                }
                            }
                        ]
                    },
                    "patching_rect": [ 517.0, 503.0, 60.0, 22.0 ],
                    "text": "p rota rnd"
                }
            },
            {
                "box": {
                    "id": "obj-53",
                    "maxclass": "jit.pwindow",
                    "numinlets": 1,
                    "numoutlets": 2,
                    "outlettype": [ "jit_matrix", "" ],
                    "patching_rect": [ 740.4761834144592, 652.3809461593628, 141.66666531562805, 140.47618913650513 ],
                    "sync": 1
                }
            },
            {
                "box": {
                    "id": "obj-52",
                    "maxclass": "newobj",
                    "numinlets": 1,
                    "numoutlets": 2,
                    "outlettype": [ "jit_matrix", "" ],
                    "patching_rect": [ 481.0, 542.0, 41.0, 22.0 ],
                    "text": "jit.rota"
                }
            },
            {
                "box": {
                    "id": "obj-51",
                    "maxclass": "number",
                    "numinlets": 1,
                    "numoutlets": 2,
                    "outlettype": [ "", "bang" ],
                    "parameter_enable": 0,
                    "patching_rect": [ 505.28, 96.0, 50.0, 22.0 ]
                }
            },
            {
                "box": {
                    "id": "obj-41",
                    "maxclass": "newobj",
                    "numinlets": 2,
                    "numoutlets": 2,
                    "outlettype": [ "jit_matrix", "" ],
                    "patching_rect": [ 291.0, 425.0, 29.5, 22.0 ],
                    "text": "jit./"
                }
            },
            {
                "box": {
                    "id": "obj-40",
                    "maxclass": "newobj",
                    "numinlets": 2,
                    "numoutlets": 2,
                    "outlettype": [ "jit_matrix", "" ],
                    "patching_rect": [ 187.0, 425.0, 29.5, 22.0 ],
                    "text": "jit.*"
                }
            },
            {
                "box": {
                    "id": "obj-32",
                    "maxclass": "jit.pwindow",
                    "numinlets": 1,
                    "numoutlets": 2,
                    "outlettype": [ "jit_matrix", "" ],
                    "patching_rect": [ 740.4761834144592, 485.21127396821976, 128.57142734527588, 128.57142734527588 ],
                    "sync": 1
                }
            },
            {
                "box": {
                    "id": "obj-31",
                    "maxclass": "newobj",
                    "numinlets": 2,
                    "numoutlets": 2,
                    "outlettype": [ "jit_matrix", "" ],
                    "patching_rect": [ 481.0, 458.0, 29.5, 22.0 ],
                    "text": "jit.*"
                }
            },
            {
                "box": {
                    "id": "obj-29",
                    "maxclass": "newobj",
                    "numinlets": 1,
                    "numoutlets": 2,
                    "outlettype": [ "jit_matrix", "" ],
                    "patching_rect": [ 492.0, 411.0, 133.0, 22.0 ],
                    "text": "jit.noise 4 char 100 100"
                }
            },
            {
                "box": {
                    "id": "obj-28",
                    "maxclass": "jit.pwindow",
                    "numinlets": 1,
                    "numoutlets": 2,
                    "outlettype": [ "jit_matrix", "" ],
                    "patching_rect": [ 219.0, 499.0, 137.71186769008636, 137.71186769008636 ],
                    "sync": 1
                }
            },
            {
                "box": {
                    "id": "obj-27",
                    "maxclass": "newobj",
                    "numinlets": 1,
                    "numoutlets": 5,
                    "outlettype": [ "jit_matrix", "jit_matrix", "jit_matrix", "jit_matrix", "" ],
                    "patching_rect": [ 219.0, 389.0, 69.0, 22.0 ],
                    "text": "jit.unpack 4"
                }
            },
            {
                "box": {
                    "id": "obj-26",
                    "maxclass": "newobj",
                    "numinlets": 4,
                    "numoutlets": 2,
                    "outlettype": [ "jit_matrix", "" ],
                    "patching_rect": [ 219.0, 461.0, 56.0, 22.0 ],
                    "text": "jit.pack 4"
                }
            },
            {
                "box": {
                    "id": "obj-18",
                    "maxclass": "jit.pwindow",
                    "numinlets": 1,
                    "numoutlets": 2,
                    "outlettype": [ "jit_matrix", "" ],
                    "patching_rect": [ 243.0, 144.0, 148.0, 147.06780302524567 ],
                    "sync": 1
                }
            },
            {
                "box": {
                    "id": "obj-17",
                    "maxclass": "newobj",
                    "numinlets": 1,
                    "numoutlets": 2,
                    "outlettype": [ "jit_matrix", "" ],
                    "patching_rect": [ 461.28, 323.9436662197113, 149.0, 22.0 ],
                    "text": "jit.matrix 4 float32 300 300"
                }
            },
            {
                "box": {
                    "id": "obj-16",
                    "maxclass": "newobj",
                    "numinlets": 1,
                    "numoutlets": 2,
                    "outlettype": [ "jit_matrix", "" ],
                    "patching_rect": [ 461.28, 230.9322088956833, 118.0, 22.0 ],
                    "text": "jit.dimmap @invert 2"
                }
            },
            {
                "box": {
                    "id": "obj-13",
                    "maxclass": "toggle",
                    "numinlets": 1,
                    "numoutlets": 1,
                    "outlettype": [ "int" ],
                    "parameter_enable": 0,
                    "patching_rect": [ 461.28, 106.77966356277466, 24.0, 24.0 ]
                }
            },
            {
                "box": {
                    "id": "obj-11",
                    "maxclass": "newobj",
                    "numinlets": 2,
                    "numoutlets": 1,
                    "outlettype": [ "bang" ],
                    "patching_rect": [ 461.28, 143.55, 63.0, 22.0 ],
                    "text": "qmetro 20"
                }
            },
            {
                "box": {
                    "id": "obj-10",
                    "maxclass": "message",
                    "numinlets": 2,
                    "numoutlets": 1,
                    "outlettype": [ "" ],
                    "patching_rect": [ 557.6271319389343, 154.23729181289673, 35.0, 22.0 ],
                    "text": "open"
                }
            },
            {
                "box": {
                    "id": "obj-8",
                    "maxclass": "newobj",
                    "numinlets": 1,
                    "numoutlets": 2,
                    "outlettype": [ "jit_matrix", "" ],
                    "patching_rect": [ 461.28, 197.45763182640076, 45.0, 22.0 ],
                    "text": "jit.grab"
                }
            }
        ],
        "lines": [
            {
                "patchline": {
                    "destination": [ "obj-8", 0 ],
                    "source": [ "obj-10", 0 ]
                }
            },
            {
                "patchline": {
                    "destination": [ "obj-101", 0 ],
                    "source": [ "obj-100", 0 ]
                }
            },
            {
                "patchline": {
                    "destination": [ "obj-107", 0 ],
                    "order": 1,
                    "source": [ "obj-101", 0 ]
                }
            },
            {
                "patchline": {
                    "destination": [ "obj-108", 0 ],
                    "order": 0,
                    "source": [ "obj-101", 0 ]
                }
            },
            {
                "patchline": {
                    "destination": [ "obj-103", 0 ],
                    "source": [ "obj-102", 0 ]
                }
            },
            {
                "patchline": {
                    "destination": [ "obj-102", 0 ],
                    "source": [ "obj-107", 0 ]
                }
            },
            {
                "patchline": {
                    "destination": [ "obj-107", 1 ],
                    "source": [ "obj-108", 0 ]
                }
            },
            {
                "patchline": {
                    "destination": [ "obj-110", 0 ],
                    "source": [ "obj-109", 0 ]
                }
            },
            {
                "patchline": {
                    "destination": [ "obj-115", 0 ],
                    "order": 2,
                    "source": [ "obj-11", 0 ]
                }
            },
            {
                "patchline": {
                    "destination": [ "obj-118", 0 ],
                    "order": 0,
                    "source": [ "obj-11", 0 ]
                }
            },
            {
                "patchline": {
                    "destination": [ "obj-29", 0 ],
                    "order": 3,
                    "source": [ "obj-11", 0 ]
                }
            },
            {
                "patchline": {
                    "destination": [ "obj-8", 0 ],
                    "order": 4,
                    "source": [ "obj-11", 0 ]
                }
            },
            {
                "patchline": {
                    "destination": [ "obj-94", 0 ],
                    "order": 1,
                    "source": [ "obj-11", 0 ]
                }
            },
            {
                "patchline": {
                    "destination": [ "obj-108", 0 ],
                    "source": [ "obj-110", 0 ]
                }
            },
            {
                "patchline": {
                    "destination": [ "obj-51", 0 ],
                    "source": [ "obj-112", 0 ]
                }
            },
            {
                "patchline": {
                    "destination": [ "obj-29", 0 ],
                    "source": [ "obj-115", 0 ]
                }
            },
            {
                "patchline": {
                    "destination": [ "obj-17", 0 ],
                    "source": [ "obj-118", 0 ]
                }
            },
            {
                "patchline": {
                    "destination": [ "obj-99", 0 ],
                    "source": [ "obj-119", 0 ]
                }
            },
            {
                "patchline": {
                    "destination": [ "obj-109", 0 ],
                    "source": [ "obj-120", 0 ]
                }
            },
            {
                "patchline": {
                    "destination": [ "obj-8", 0 ],
                    "source": [ "obj-122", 0 ]
                }
            },
            {
                "patchline": {
                    "destination": [ "obj-11", 0 ],
                    "source": [ "obj-13", 0 ]
                }
            },
            {
                "patchline": {
                    "destination": [ "obj-17", 0 ],
                    "source": [ "obj-16", 0 ]
                }
            },
            {
                "patchline": {
                    "destination": [ "obj-18", 0 ],
                    "order": 0,
                    "source": [ "obj-17", 0 ]
                }
            },
            {
                "patchline": {
                    "destination": [ "obj-27", 0 ],
                    "order": 1,
                    "source": [ "obj-17", 0 ]
                }
            },
            {
                "patchline": {
                    "destination": [ "obj-28", 0 ],
                    "order": 1,
                    "source": [ "obj-26", 0 ]
                }
            },
            {
                "patchline": {
                    "destination": [ "obj-31", 0 ],
                    "order": 0,
                    "source": [ "obj-26", 0 ]
                }
            },
            {
                "patchline": {
                    "destination": [ "obj-26", 2 ],
                    "source": [ "obj-27", 2 ]
                }
            },
            {
                "patchline": {
                    "destination": [ "obj-26", 3 ],
                    "order": 0,
                    "source": [ "obj-27", 1 ]
                }
            },
            {
                "patchline": {
                    "destination": [ "obj-26", 1 ],
                    "order": 1,
                    "source": [ "obj-27", 1 ]
                }
            },
            {
                "patchline": {
                    "destination": [ "obj-40", 0 ],
                    "source": [ "obj-27", 0 ]
                }
            },
            {
                "patchline": {
                    "destination": [ "obj-41", 0 ],
                    "source": [ "obj-27", 3 ]
                }
            },
            {
                "patchline": {
                    "destination": [ "obj-31", 1 ],
                    "order": 0,
                    "source": [ "obj-29", 0 ]
                }
            },
            {
                "patchline": {
                    "destination": [ "obj-40", 1 ],
                    "order": 2,
                    "source": [ "obj-29", 0 ]
                }
            },
            {
                "patchline": {
                    "destination": [ "obj-41", 1 ],
                    "order": 1,
                    "source": [ "obj-29", 0 ]
                }
            },
            {
                "patchline": {
                    "destination": [ "obj-32", 0 ],
                    "order": 0,
                    "source": [ "obj-31", 0 ]
                }
            },
            {
                "patchline": {
                    "destination": [ "obj-52", 0 ],
                    "order": 1,
                    "source": [ "obj-31", 0 ]
                }
            },
            {
                "patchline": {
                    "destination": [ "obj-26", 0 ],
                    "source": [ "obj-40", 0 ]
                }
            },
            {
                "patchline": {
                    "destination": [ "obj-26", 2 ],
                    "source": [ "obj-41", 0 ]
                }
            },
            {
                "patchline": {
                    "destination": [ "obj-11", 1 ],
                    "source": [ "obj-51", 0 ]
                }
            },
            {
                "patchline": {
                    "destination": [ "obj-95", 0 ],
                    "order": 0,
                    "source": [ "obj-52", 0 ]
                }
            },
            {
                "patchline": {
                    "destination": [ "obj-96", 0 ],
                    "order": 1,
                    "source": [ "obj-52", 0 ]
                }
            },
            {
                "patchline": {
                    "destination": [ "obj-16", 0 ],
                    "source": [ "obj-8", 0 ]
                }
            },
            {
                "patchline": {
                    "destination": [ "obj-52", 0 ],
                    "source": [ "obj-94", 0 ]
                }
            },
            {
                "patchline": {
                    "destination": [ "obj-96", 1 ],
                    "source": [ "obj-95", 0 ]
                }
            },
            {
                "patchline": {
                    "destination": [ "obj-100", 0 ],
                    "order": 1,
                    "source": [ "obj-96", 0 ]
                }
            },
            {
                "patchline": {
                    "destination": [ "obj-53", 0 ],
                    "order": 0,
                    "source": [ "obj-96", 0 ]
                }
            },
            {
                "patchline": {
                    "destination": [ "obj-95", 0 ],
                    "source": [ "obj-97", 0 ]
                }
            },
            {
                "patchline": {
                    "destination": [ "obj-97", 0 ],
                    "source": [ "obj-99", 0 ]
                }
            }
        ],
        "autosave": 0,
        "oscsendudpport": 9000
    }
}